<?xml version="1.0" standalone="no"?><!DOCTYPE svg PUBLIC "-//W3C//DTD SVG 1.1//EN" "http://www.w3.org/Graphics/SVG/1.1/DTD/svg11.dtd"><svg t="1556273113397" class="icon" style="" viewBox="0 0 1024 1024" version="1.1" xmlns="http://www.w3.org/2000/svg" p-id="1646" xmlns:xlink="http://www.w3.org/1999/xlink" width="200" height="200"><defs><style type="text/css"></style></defs><path d="M625.664 512l-380.416 380.416c-28.16 28.16-28.16 73.216 0 101.376s73.216 28.16 101.376 0l420.864-420.864c4.096-2.56 7.68-5.632 11.264-9.216 14.336-14.336 21.504-32.768 20.992-51.712 0-18.432-6.656-37.376-20.992-51.712-3.584-3.584-7.168-6.656-11.264-9.216L346.624 30.208c-13.824-13.824-32.256-20.992-50.688-20.992-18.432 0-36.864 7.168-50.688 20.992-28.16 28.16-28.16 73.216 0 101.376l380.416 380.416z" fill="#ffffff" p-id="1647"></path></svg>